# This file uses centimeters as units for non-parametric coordinates.

mtllib Pine.mtl
v 0.050089 0.101379 -0.016275
v 0.042608 0.101379 -0.030956
v 0.030956 0.101379 -0.042608
v 0.016275 0.101379 -0.050089
v 0.000000 0.101379 -0.052666
v -0.016275 0.101379 -0.050089
v -0.030956 0.101379 -0.042608
v -0.042608 0.101379 -0.030956
v -0.050089 0.101379 -0.016275
v -0.052666 0.101379 0.000000
v -0.050089 0.101379 0.016275
v -0.042608 0.101379 0.030956
v -0.030956 0.101379 0.042608
v -0.016275 0.101379 0.050089
v 0.000000 0.101379 0.052666
v 0.016275 0.101379 0.050089
v 0.030956 0.101379 0.042608
v 0.042608 0.101379 0.030956
v 0.050089 0.101379 0.016275
v 0.052666 0.101379 0.000000
v 0.050089 1.844567 -0.016275
v 0.042608 1.844567 -0.030956
v 0.030956 1.844567 -0.042608
v 0.016275 1.844567 -0.050089
v 0.000000 1.844567 -0.052666
v -0.016275 1.844567 -0.050089
v -0.030956 1.844567 -0.042608
v -0.042608 1.844567 -0.030956
v -0.050089 1.844567 -0.016275
v -0.052666 1.844567 0.000000
v -0.050089 1.844567 0.016275
v -0.042608 1.844567 0.030956
v -0.030956 1.844567 0.042608
v -0.016275 1.844567 0.050089
v 0.000000 1.844567 0.052666
v 0.016275 1.844567 0.050089
v 0.030956 1.844567 0.042608
v 0.042608 1.844567 0.030956
v 0.050089 1.844567 0.016275
v 0.052666 1.844567 0.000000
v 0.000000 0.101379 0.000000
v 0.000000 1.844567 0.000000
v 0.220850 1.371136 -0.071759
v 0.187866 1.371136 -0.136493
v 0.136494 1.371136 -0.187867
v 0.071758 1.371136 -0.220851
v 0.000000 1.371136 -0.232216
v -0.071758 1.371136 -0.220851
v -0.136494 1.371136 -0.187867
v -0.187866 1.371136 -0.136493
v -0.220850 1.371136 -0.071759
v -0.232216 1.371136 0.000000
v -0.220850 1.371136 0.071759
v -0.187866 1.371136 0.136493
v -0.136494 1.371136 0.187867
v -0.071758 1.371136 0.220851
v 0.000000 1.371136 0.232216
v 0.071758 1.371136 0.220851
v 0.136494 1.371136 0.187867
v 0.187866 1.371136 0.136493
v 0.220850 1.371136 0.071759
v 0.232216 1.371136 0.000000
v 0.000000 1.835567 0.000000
v 0.192537 1.534029 -0.062559
v 0.163782 1.534029 -0.118995
v 0.118996 1.534029 -0.163783
v 0.062559 1.534029 -0.192538
v 0.000000 1.534029 -0.202447
v -0.062559 1.534029 -0.192538
v -0.118996 1.534029 -0.163783
v -0.163782 1.534029 -0.118995
v -0.192537 1.534029 -0.062559
v -0.202446 1.534029 0.000000
v -0.192537 1.534029 0.062559
v -0.163782 1.534029 0.118995
v -0.118996 1.534029 0.163783
v -0.062559 1.534029 0.192538
v 0.000000 1.534029 0.202447
v 0.062559 1.534029 0.192538
v 0.118996 1.534029 0.163783
v 0.163782 1.534029 0.118995
v 0.192537 1.534029 0.062559
v 0.202446 1.534029 0.000000
v 0.000000 1.938922 0.000000
v 0.125460 1.731375 -0.040764
v 0.106722 1.731375 -0.077538
v 0.077538 1.731375 -0.106722
v 0.040764 1.731375 -0.125459
v 0.000000 1.731375 -0.131915
v -0.040764 1.731375 -0.125459
v -0.077538 1.731375 -0.106722
v -0.106722 1.731375 -0.077538
v -0.125460 1.731375 -0.040764
v -0.131916 1.731375 0.000000
v -0.125460 1.731375 0.040764
v -0.106722 1.731375 0.077538
v -0.077538 1.731375 0.106722
v -0.040764 1.731375 0.125459
v 0.000000 1.731375 0.131915
v 0.040764 1.731375 0.125459
v 0.077538 1.731375 0.106722
v 0.106722 1.731375 0.077538
v 0.125460 1.731375 0.040764
v 0.131916 1.731375 0.000000
v 0.000000 1.995205 0.000000
vt 0.648603 0.107966
vt 0.626409 0.064408
vt 0.591842 0.029841
vt 0.548284 0.007647
vt 0.500000 -0.000000
vt 0.451716 0.007647
vt 0.408159 0.029841
vt 0.373591 0.064409
vt 0.351397 0.107966
vt 0.343750 0.156250
vt 0.351397 0.204534
vt 0.373591 0.248091
vt 0.408159 0.282659
vt 0.451716 0.304853
vt 0.500000 0.312500
vt 0.548284 0.304853
vt 0.591841 0.282659
vt 0.626409 0.248091
vt 0.648603 0.204534
vt 0.656250 0.156250
vt 0.375000 0.312500
vt 0.387500 0.312500
vt 0.400000 0.312500
vt 0.412500 0.312500
vt 0.425000 0.312500
vt 0.437500 0.312500
vt 0.450000 0.312500
vt 0.462500 0.312500
vt 0.475000 0.312500
vt 0.487500 0.312500
vt 0.500000 0.312500
vt 0.512500 0.312500
vt 0.525000 0.312500
vt 0.537500 0.312500
vt 0.550000 0.312500
vt 0.562500 0.312500
vt 0.575000 0.312500
vt 0.587500 0.312500
vt 0.600000 0.312500
vt 0.612500 0.312500
vt 0.625000 0.312500
vt 0.375000 0.688440
vt 0.387500 0.688440
vt 0.400000 0.688440
vt 0.412500 0.688440
vt 0.425000 0.688440
vt 0.437500 0.688440
vt 0.450000 0.688440
vt 0.462500 0.688440
vt 0.475000 0.688440
vt 0.487500 0.688440
vt 0.500000 0.688440
vt 0.512500 0.688440
vt 0.525000 0.688440
vt 0.537500 0.688440
vt 0.550000 0.688440
vt 0.562500 0.688440
vt 0.575000 0.688440
vt 0.587500 0.688440
vt 0.600000 0.688440
vt 0.612500 0.688440
vt 0.625000 0.688440
vt 0.648603 0.795466
vt 0.626409 0.751908
vt 0.591842 0.717341
vt 0.548284 0.695147
vt 0.500000 0.687500
vt 0.451716 0.695147
vt 0.408159 0.717341
vt 0.373591 0.751909
vt 0.351397 0.795466
vt 0.343750 0.843750
vt 0.351397 0.892034
vt 0.373591 0.935591
vt 0.408159 0.970159
vt 0.451716 0.992353
vt 0.500000 1.000000
vt 0.548284 0.992353
vt 0.591841 0.970159
vt 0.626409 0.935591
vt 0.648603 0.892034
vt 0.656250 0.843750
vt 0.500000 0.150000
vt 0.500000 0.837500
vt 0.737764 0.172746
vt 0.750000 0.250000
vt 0.737764 0.327254
vt 0.702254 0.396946
vt 0.646946 0.452254
vt 0.577254 0.487764
vt 0.500000 0.500000
vt 0.422746 0.487764
vt 0.353054 0.452254
vt 0.297746 0.396946
vt 0.262236 0.327254
vt 0.250000 0.250000
vt 0.262236 0.172746
vt 0.297746 0.103054
vt 0.353054 0.047746
vt 0.422746 0.012236
vt 0.500000 -0.000000
vt 0.577254 0.012236
vt 0.646946 0.047746
vt 0.702254 0.103054
vt 0.250000 0.500000
vt 0.275000 0.500000
vt 0.500000 1.000000
vt 0.300000 0.500000
vt 0.325000 0.500000
vt 0.350000 0.500000
vt 0.375000 0.500000
vt 0.400000 0.500000
vt 0.425000 0.500000
vt 0.450000 0.500000
vt 0.475000 0.500000
vt 0.500000 0.500000
vt 0.525000 0.500000
vt 0.550000 0.500000
vt 0.575000 0.500000
vt 0.600000 0.500000
vt 0.625000 0.500000
vt 0.650000 0.500000
vt 0.675000 0.500000
vt 0.700000 0.500000
vt 0.725000 0.500000
vt 0.750000 0.500000
vt 0.737764 0.172746
vt 0.750000 0.250000
vt 0.737764 0.327254
vt 0.702254 0.396946
vt 0.646946 0.452254
vt 0.577254 0.487764
vt 0.500000 0.500000
vt 0.422746 0.487764
vt 0.353054 0.452254
vt 0.297746 0.396946
vt 0.262236 0.327254
vt 0.250000 0.250000
vt 0.262236 0.172746
vt 0.297746 0.103054
vt 0.353054 0.047746
vt 0.422746 0.012236
vt 0.500000 -0.000000
vt 0.577254 0.012236
vt 0.646946 0.047746
vt 0.702254 0.103054
vt 0.250000 0.500000
vt 0.275000 0.500000
vt 0.500000 1.000000
vt 0.300000 0.500000
vt 0.325000 0.500000
vt 0.350000 0.500000
vt 0.375000 0.500000
vt 0.400000 0.500000
vt 0.425000 0.500000
vt 0.450000 0.500000
vt 0.475000 0.500000
vt 0.500000 0.500000
vt 0.525000 0.500000
vt 0.550000 0.500000
vt 0.575000 0.500000
vt 0.600000 0.500000
vt 0.625000 0.500000
vt 0.650000 0.500000
vt 0.675000 0.500000
vt 0.700000 0.500000
vt 0.725000 0.500000
vt 0.750000 0.500000
vt 0.737764 0.172746
vt 0.750000 0.250000
vt 0.737764 0.327254
vt 0.702254 0.396946
vt 0.646946 0.452254
vt 0.577254 0.487764
vt 0.500000 0.500000
vt 0.422746 0.487764
vt 0.353054 0.452254
vt 0.297746 0.396946
vt 0.262236 0.327254
vt 0.250000 0.250000
vt 0.262236 0.172746
vt 0.297746 0.103054
vt 0.353054 0.047746
vt 0.422746 0.012236
vt 0.500000 -0.000000
vt 0.577254 0.012236
vt 0.646946 0.047746
vt 0.702254 0.103054
vt 0.250000 0.500000
vt 0.275000 0.500000
vt 0.500000 1.000000
vt 0.300000 0.500000
vt 0.325000 0.500000
vt 0.350000 0.500000
vt 0.375000 0.500000
vt 0.400000 0.500000
vt 0.425000 0.500000
vt 0.450000 0.500000
vt 0.475000 0.500000
vt 0.500000 0.500000
vt 0.525000 0.500000
vt 0.550000 0.500000
vt 0.575000 0.500000
vt 0.600000 0.500000
vt 0.625000 0.500000
vt 0.650000 0.500000
vt 0.675000 0.500000
vt 0.700000 0.500000
vt 0.725000 0.500000
vt 0.750000 0.500000
vn 0.951065 0.000000 -0.308992
vn 0.809010 0.000000 -0.587795
vn 0.809010 0.000000 -0.587795
vn 0.951065 0.000000 -0.308992
vn 0.587789 0.000000 -0.809014
vn 0.587789 0.000000 -0.809014
vn 0.309018 0.000000 -0.951056
vn 0.309018 0.000000 -0.951056
vn -0.000000 0.000000 -1.000000
vn -0.000000 0.000000 -1.000000
vn -0.309018 0.000000 -0.951056
vn -0.309018 0.000000 -0.951056
vn -0.587789 0.000000 -0.809014
vn -0.587789 0.000000 -0.809014
vn -0.809010 0.000000 -0.587795
vn -0.809010 0.000000 -0.587795
vn -0.951065 0.000000 -0.308992
vn -0.951065 0.000000 -0.308992
vn -1.000000 0.000000 0.000000
vn -1.000000 0.000000 0.000000
vn -0.951065 0.000000 0.308992
vn -0.951065 0.000000 0.308992
vn -0.809010 0.000000 0.587795
vn -0.809010 0.000000 0.587795
vn -0.587789 0.000000 0.809015
vn -0.587789 0.000000 0.809015
vn -0.309018 0.000000 0.951056
vn -0.309018 0.000000 0.951056
vn 0.000000 0.000000 1.000000
vn 0.000000 0.000000 1.000000
vn 0.309018 0.000000 0.951056
vn 0.309018 0.000000 0.951056
vn 0.587789 0.000000 0.809015
vn 0.587789 0.000000 0.809015
vn 0.809010 0.000000 0.587795
vn 0.809010 0.000000 0.587795
vn 0.951065 0.000000 0.308992
vn 0.951065 0.000000 0.308992
vn 1.000000 0.000000 0.000000
vn 1.000000 0.000000 0.000000
vn 0.000000 -1.000000 -0.000000
vn 0.000000 -1.000000 0.000000
vn 0.000000 -1.000000 0.000000
vn 0.000000 -1.000000 -0.000000
vn 0.000000 -1.000000 0.000000
vn 0.000000 -1.000000 0.000000
vn 0.000000 -1.000000 0.000000
vn 0.000000 -1.000000 0.000000
vn 0.000000 -1.000000 0.000000
vn 0.000000 -1.000000 0.000000
vn 0.000000 -1.000000 0.000000
vn 0.000000 -1.000000 0.000000
vn 0.000000 -1.000000 0.000000
vn 0.000000 -1.000000 0.000000
vn 0.000000 -1.000000 0.000000
vn 0.000000 -1.000000 0.000000
vn 0.000000 -1.000000 0.000000
vn 0.000000 -1.000000 0.000000
vn 0.000000 -1.000000 0.000000
vn 0.000000 -1.000000 0.000000
vn 0.000000 -1.000000 0.000000
vn 0.000000 1.000000 0.000000
vn 0.000000 1.000000 0.000009
vn 0.000000 1.000000 0.000000
vn 0.000000 1.000000 0.000009
vn 0.000000 1.000000 0.000000
vn 0.000000 1.000000 0.000000
vn 0.000000 1.000000 -0.000002
vn 0.000000 1.000000 0.000002
vn 0.000000 1.000000 0.000004
vn 0.000000 1.000000 -0.000009
vn 0.000000 1.000000 -0.000009
vn 0.000000 1.000000 0.000000
vn 0.000000 1.000000 -0.000009
vn 0.000000 1.000000 -0.000009
vn 0.000000 1.000000 0.000000
vn 0.000000 1.000000 0.000000
vn 0.000000 1.000000 0.000002
vn 0.000000 1.000000 -0.000002
vn 0.000000 1.000000 -0.000004
vn 0.000000 1.000000 0.000009
vn 0.000000 1.000000 0.000009
vn 0.000000 -1.000000 -0.000000
vn 0.000000 -1.000000 -0.000000
vn 0.000000 -1.000000 -0.000000
vn 0.000000 -1.000000 -0.000000
vn 0.000000 -1.000000 -0.000000
vn 0.000000 -1.000000 -0.000000
vn 0.000000 -1.000000 -0.000000
vn 0.000000 -1.000000 -0.000000
vn 0.000000 -1.000000 -0.000000
vn 0.000000 -1.000000 -0.000000
vn 0.000000 -1.000000 -0.000000
vn 0.000000 -1.000000 -0.000000
vn 0.000000 -1.000000 -0.000000
vn 0.000000 -1.000000 -0.000000
vn 0.000000 -1.000000 -0.000000
vn 0.000000 -1.000000 -0.000000
vn 0.000000 -1.000000 -0.000000
vn 0.000000 -1.000000 -0.000000
vn 0.000000 -1.000000 -0.000000
vn 0.000000 -1.000000 -0.000000
vn 0.850651 0.447213 -0.276395
vn 0.723610 0.447213 -0.525727
vn -0.000000 1.000000 -0.000000
vn 0.525731 0.447214 -0.723606
vn 0.276392 0.447214 -0.850651
vn -0.000000 0.447214 -0.894427
vn -0.276392 0.447214 -0.850651
vn -0.525731 0.447214 -0.723606
vn -0.723610 0.447213 -0.525727
vn -0.850651 0.447213 -0.276395
vn -0.894427 0.447214 0.000000
vn -0.850651 0.447213 0.276395
vn -0.723610 0.447213 0.525727
vn -0.525731 0.447214 0.723606
vn -0.276392 0.447214 0.850651
vn 0.000000 0.447214 0.894427
vn 0.276392 0.447213 0.850651
vn 0.525731 0.447214 0.723606
vn 0.723610 0.447213 0.525727
vn 0.850651 0.447213 0.276395
vn 0.894427 0.447214 -0.000000
vn 0.000000 -1.000000 0.000000
vn 0.000000 -1.000000 0.000000
vn 0.000000 -1.000000 0.000000
vn 0.000000 -1.000000 0.000000
vn 0.000000 -1.000000 0.000000
vn 0.000000 -1.000000 0.000000
vn 0.000000 -1.000000 0.000000
vn 0.000000 -1.000000 0.000000
vn 0.000000 -1.000000 0.000000
vn 0.000000 -1.000000 0.000000
vn 0.000000 -1.000000 0.000000
vn 0.000000 -1.000000 0.000000
vn 0.000000 -1.000000 0.000000
vn 0.000000 -1.000000 0.000000
vn 0.000000 -1.000000 0.000000
vn 0.000000 -1.000000 0.000000
vn 0.000000 -1.000000 0.000000
vn 0.000000 -1.000000 0.000000
vn 0.000000 -1.000000 0.000000
vn 0.000000 -1.000000 0.000000
vn 0.850651 0.447212 -0.276394
vn 0.723612 0.447213 -0.525725
vn 0.000001 1.000000 -0.000002
vn 0.525732 0.447215 -0.723606
vn 0.276392 0.447214 -0.850651
vn -0.000000 0.447214 -0.894427
vn -0.276392 0.447214 -0.850651
vn -0.525732 0.447215 -0.723605
vn -0.723612 0.447213 -0.525725
vn -0.850651 0.447212 -0.276394
vn -0.894428 0.447213 0.000000
vn -0.850651 0.447212 0.276394
vn -0.723612 0.447213 0.525725
vn -0.525732 0.447214 0.723606
vn -0.276392 0.447213 0.850651
vn 0.000000 0.447214 0.894427
vn 0.276392 0.447214 0.850651
vn 0.525732 0.447214 0.723606
vn 0.723612 0.447213 0.525725
vn 0.850651 0.447212 0.276394
vn 0.894428 0.447213 0.000000
vn 0.000000 -1.000000 -0.000001
vn 0.000000 -1.000000 -0.000001
vn 0.000000 -1.000000 -0.000001
vn 0.000000 -1.000000 -0.000001
vn 0.000000 -1.000000 -0.000001
vn 0.000000 -1.000000 -0.000001
vn 0.000000 -1.000000 -0.000001
vn 0.000000 -1.000000 -0.000001
vn 0.000000 -1.000000 -0.000001
vn 0.000000 -1.000000 -0.000001
vn 0.000000 -1.000000 -0.000001
vn 0.000000 -1.000000 -0.000001
vn 0.000000 -1.000000 -0.000001
vn 0.000000 -1.000000 -0.000001
vn 0.000000 -1.000000 -0.000001
vn 0.000000 -1.000000 -0.000001
vn 0.000000 -1.000000 -0.000001
vn 0.000000 -1.000000 -0.000001
vn 0.000000 -1.000000 -0.000001
vn 0.000000 -1.000000 -0.000001
vn 0.850648 0.447215 -0.276398
vn 0.723602 0.447214 -0.525738
vn 0.000001 1.000000 0.000001
vn 0.525730 0.447213 -0.723608
vn 0.276394 0.447214 -0.850650
vn -0.000000 0.447214 -0.894427
vn -0.276395 0.447214 -0.850650
vn -0.525730 0.447214 -0.723607
vn -0.723602 0.447214 -0.525738
vn -0.850648 0.447215 -0.276398
vn -0.894426 0.447215 0.000000
vn -0.850648 0.447215 0.276398
vn -0.723602 0.447214 0.525738
vn -0.525730 0.447213 0.723608
vn -0.276395 0.447214 0.850650
vn 0.000000 0.447214 0.894427
vn 0.276395 0.447214 0.850650
vn 0.525730 0.447213 0.723608
vn 0.723602 0.447214 0.525738
vn 0.850648 0.447215 0.276398
vn 0.894426 0.447215 -0.000000
g pCylinder7
usemtl Brown_SG
f 1/21/1 2/22/2 22/43/3 21/42/4
f 2/22/2 3/23/5 23/44/6 22/43/3
f 3/23/5 4/24/7 24/45/8 23/44/6
f 4/24/7 5/25/9 25/46/10 24/45/8
f 5/25/9 6/26/11 26/47/12 25/46/10
f 6/26/11 7/27/13 27/48/14 26/47/12
f 7/27/13 8/28/15 28/49/16 27/48/14
f 8/28/15 9/29/17 29/50/18 28/49/16
f 9/29/17 10/30/19 30/51/20 29/50/18
f 10/30/19 11/31/21 31/52/22 30/51/20
f 11/31/21 12/32/23 32/53/24 31/52/22
f 12/32/23 13/33/25 33/54/26 32/53/24
f 13/33/25 14/34/27 34/55/28 33/54/26
f 14/34/27 15/35/29 35/56/30 34/55/28
f 15/35/29 16/36/31 36/57/32 35/56/30
f 16/36/31 17/37/33 37/58/34 36/57/32
f 17/37/33 18/38/35 38/59/36 37/58/34
f 18/38/35 19/39/37 39/60/38 38/59/36
f 19/39/37 20/40/39 40/61/40 39/60/38
f 20/40/39 1/41/1 21/62/4 40/61/40
f 2/2/41 1/1/42 41/83/43
f 3/3/44 2/2/41 41/83/43
f 4/4/45 3/3/44 41/83/43
f 5/5/46 4/4/45 41/83/43
f 6/6/47 5/5/46 41/83/43
f 7/7/48 6/6/47 41/83/43
f 8/8/49 7/7/48 41/83/43
f 9/9/50 8/8/49 41/83/43
f 10/10/51 9/9/50 41/83/43
f 11/11/52 10/10/51 41/83/43
f 12/12/53 11/11/52 41/83/43
f 13/13/54 12/12/53 41/83/43
f 14/14/55 13/13/54 41/83/43
f 15/15/56 14/14/55 41/83/43
f 16/16/57 15/15/56 41/83/43
f 17/17/58 16/16/57 41/83/43
f 18/18/59 17/17/58 41/83/43
f 19/19/60 18/18/59 41/83/43
f 20/20/61 19/19/60 41/83/43
f 1/1/42 20/20/61 41/83/43
f 21/81/62 22/80/63 42/84/64
f 22/80/63 23/79/65 42/84/64
f 23/79/65 24/78/66 42/84/64
f 24/78/66 25/77/67 42/84/64
f 25/77/67 26/76/68 42/84/64
f 26/76/68 27/75/69 42/84/64
f 27/75/69 28/74/70 42/84/64
f 28/74/70 29/73/71 42/84/64
f 29/73/71 30/72/72 42/84/64
f 30/72/72 31/71/73 42/84/64
f 31/71/73 32/70/74 42/84/64
f 32/70/74 33/69/75 42/84/64
f 33/69/75 34/68/76 42/84/64
f 34/68/76 35/67/77 42/84/64
f 35/67/77 36/66/78 42/84/64
f 36/66/78 37/65/79 42/84/64
f 37/65/79 38/64/80 42/84/64
f 38/64/80 39/63/81 42/84/64
f 39/63/81 40/82/82 42/84/64
f 40/82/82 21/81/62 42/84/64
usemtl polySurface3SG
f 43/85/83 62/86/84 61/87/85 60/88/86 59/89/87 58/90/88 57/91/89 56/92/90 55/93/91 54/94/92 53/95/93 52/96/94 51/97/95 50/98/96 49/99/97 48/100/98 47/101/99 46/102/100 45/103/101 44/104/102
f 43/105/103 44/106/104 63/107/105
f 44/106/104 45/108/106 63/107/105
f 45/108/106 46/109/107 63/107/105
f 46/109/107 47/110/108 63/107/105
f 47/110/108 48/111/109 63/107/105
f 48/111/109 49/112/110 63/107/105
f 49/112/110 50/113/111 63/107/105
f 50/113/111 51/114/112 63/107/105
f 51/114/112 52/115/113 63/107/105
f 52/115/113 53/116/114 63/107/105
f 53/116/114 54/117/115 63/107/105
f 54/117/115 55/118/116 63/107/105
f 55/118/116 56/119/117 63/107/105
f 56/119/117 57/120/118 63/107/105
f 57/120/118 58/121/119 63/107/105
f 58/121/119 59/122/120 63/107/105
f 59/122/120 60/123/121 63/107/105
f 60/123/121 61/124/122 63/107/105
f 61/124/122 62/125/123 63/107/105
f 62/125/123 43/126/103 63/107/105
f 64/127/124 83/128/125 82/129/126 81/130/127 80/131/128 79/132/129 78/133/130 77/134/131 76/135/132 75/136/133 74/137/134 73/138/135 72/139/136 71/140/137 70/141/138 69/142/139 68/143/140 67/144/141 66/145/142 65/146/143
f 64/147/144 65/148/145 84/149/146
f 65/148/145 66/150/147 84/149/146
f 66/150/147 67/151/148 84/149/146
f 67/151/148 68/152/149 84/149/146
f 68/152/149 69/153/150 84/149/146
f 69/153/150 70/154/151 84/149/146
f 70/154/151 71/155/152 84/149/146
f 71/155/152 72/156/153 84/149/146
f 72/156/153 73/157/154 84/149/146
f 73/157/154 74/158/155 84/149/146
f 74/158/155 75/159/156 84/149/146
f 75/159/156 76/160/157 84/149/146
f 76/160/157 77/161/158 84/149/146
f 77/161/158 78/162/159 84/149/146
f 78/162/159 79/163/160 84/149/146
f 79/163/160 80/164/161 84/149/146
f 80/164/161 81/165/162 84/149/146
f 81/165/162 82/166/163 84/149/146
f 82/166/163 83/167/164 84/149/146
f 83/167/164 64/168/144 84/149/146
f 85/169/165 104/170/166 103/171/167 102/172/168 101/173/169 100/174/170 99/175/171 98/176/172 97/177/173 96/178/174 95/179/175 94/180/176 93/181/177 92/182/178 91/183/179 90/184/180 89/185/181 88/186/182 87/187/183 86/188/184
f 85/189/185 86/190/186 105/191/187
f 86/190/186 87/192/188 105/191/187
f 87/192/188 88/193/189 105/191/187
f 88/193/189 89/194/190 105/191/187
f 89/194/190 90/195/191 105/191/187
f 90/195/191 91/196/192 105/191/187
f 91/196/192 92/197/193 105/191/187
f 92/197/193 93/198/194 105/191/187
f 93/198/194 94/199/195 105/191/187
f 94/199/195 95/200/196 105/191/187
f 95/200/196 96/201/197 105/191/187
f 96/201/197 97/202/198 105/191/187
f 97/202/198 98/203/199 105/191/187
f 98/203/199 99/204/200 105/191/187
f 99/204/200 100/205/201 105/191/187
f 100/205/201 101/206/202 105/191/187
f 101/206/202 102/207/203 105/191/187
f 102/207/203 103/208/204 105/191/187
f 103/208/204 104/209/205 105/191/187
f 104/209/205 85/210/185 105/191/187
