# This file uses centimeters as units for non-parametric coordinates.

mtllib CityBlock4.mtl
v -22.440426 2.772056 -1.000000
v -21.235353 2.772056 -1.000000
v -22.440426 8.430422 -1.000000
v -21.235353 8.430422 -1.000000
v -22.440426 8.430422 -2.205073
v -21.235353 8.430422 -2.205073
v -21.235353 2.772056 -2.205073
v -23.705721 2.122414 -3.196113
v -19.924219 2.122414 -3.196113
v -23.705721 5.903916 -3.196113
v -19.924219 5.903916 -3.196113
v -23.705721 5.903916 -6.977614
v -19.924219 5.903916 -6.977614
v -19.924219 2.122414 -6.977614
v -23.566328 -0.008472 -3.182951
v -17.760715 -0.008472 -3.182951
v -23.566328 4.289729 -3.182951
v -17.760715 4.289729 -3.182951
v -23.566328 4.289729 -8.289783
v -17.760715 4.289729 -8.289783
v -17.760715 -0.008472 -8.289783
v -23.566328 -0.008472 1.740953
v -17.760715 -0.008472 1.740953
v -23.566328 4.289729 1.740953
v -17.760715 4.289729 1.740953
v -23.566328 4.289729 -3.365880
v -17.760715 4.289729 -3.365880
v -17.760715 -0.008472 -3.365880
v -23.566328 -0.008472 6.839954
v -17.760715 -0.008472 6.839954
v -23.566328 4.289729 6.839954
v -17.760715 4.289729 6.839954
v -23.566328 4.289729 1.733121
v -17.760715 4.289729 1.733121
v -17.760715 -0.008472 1.733121
v -23.705721 2.122414 0.172210
v -19.924219 2.122414 0.172210
v -23.705721 5.903916 0.172210
v -19.924219 5.903916 0.172210
v -23.705721 5.903916 -3.609292
v -19.924219 5.903916 -3.609292
v -19.924219 2.122414 -3.609292
v -23.705721 2.122414 3.542858
v -19.924219 2.122414 3.542858
v -23.705721 5.903916 3.542858
v -19.924219 5.903916 3.542858
v -23.705721 5.903916 -0.238644
v -19.924219 5.903916 -0.238644
v -19.924219 2.122414 -0.238644
vt 0.000000 0.000000
vt 0.000000 0.000000
vt -0.000000 0.500000
vt -0.000000 0.500000
vt 1.000000 0.500000
vt 1.000000 0.500000
vt 1.000000 0.000000
vt 1.000000 1.000000
vt 1.000000 0.000000
vt 1.000000 1.000000
vt 0.000000 1.000000
vt 0.000000 1.000000
vt 0.000000 0.000000
vt 1.000000 0.000000
vt 1.000000 1.000000
vt 0.000000 1.000000
vt 0.000000 0.500000
vt 0.000000 0.500000
vt 1.000000 0.500000
vt 1.000000 0.500000
vt 0.000000 0.000000
vt 1.000000 0.000000
vt 1.000000 1.000000
vt 0.000000 1.000000
vt 0.000000 0.000000
vt 1.000000 0.000000
vt 1.000000 1.000000
vt 0.000000 1.000000
vt 1.000000 1.000000
vt 0.000000 1.000000
vt 0.000000 0.000000
vt 1.000000 0.000000
vt 1.000000 1.000000
vt 0.000000 1.000000
vt 0.000000 0.000000
vt 1.000000 0.000000
vt 1.000000 1.000000
vt 0.000000 1.000000
vt 1.000000 1.000000
vt 0.000000 1.000000
vt 0.000000 0.000000
vt 1.000000 0.000000
vt 1.000000 1.000000
vt 0.000000 1.000000
vt 0.000000 0.000000
vt 1.000000 0.000000
vt 1.000000 1.000000
vt 0.000000 1.000000
vt 1.000000 1.000000
vt 0.000000 1.000000
vt 0.000000 0.000000
vt 1.000000 0.000000
vt 1.000000 1.000000
vt 0.000000 1.000000
vt 0.000000 0.000000
vt 1.000000 0.000000
vt 1.000000 1.000000
vt 0.000000 1.000000
vt 0.000000 0.500000
vt 0.000000 0.500000
vt 1.000000 0.500000
vt 1.000000 0.500000
vt 0.000000 0.000000
vt 1.000000 0.000000
vt 1.000000 1.000000
vt 0.000000 1.000000
vt 0.000000 0.000000
vt 1.000000 0.000000
vt 1.000000 1.000000
vt 0.000000 1.000000
vt 0.000000 0.500000
vt 0.000000 0.500000
vt 1.000000 0.500000
vt 1.000000 0.500000
vt 0.000000 0.000000
vt 1.000000 0.000000
vt 1.000000 1.000000
vt 0.000000 1.000000
vn 0.000000 0.000000 1.000000
vn 0.000000 0.000000 1.000000
vn 0.000000 0.000000 1.000000
vn 0.000000 0.000000 1.000000
vn 0.000000 1.000000 0.000000
vn 0.000000 1.000000 0.000000
vn 0.000000 1.000000 0.000000
vn 0.000000 1.000000 0.000000
vn 1.000000 0.000000 0.000000
vn 1.000000 0.000000 0.000000
vn 1.000000 0.000000 0.000000
vn 1.000000 0.000000 0.000000
vn 0.000000 0.000000 1.000000
vn 0.000000 0.000000 1.000000
vn 0.000000 0.000000 1.000000
vn 0.000000 0.000000 1.000000
vn 0.000000 1.000000 0.000000
vn 0.000000 1.000000 0.000000
vn 0.000000 1.000000 0.000000
vn 0.000000 1.000000 0.000000
vn 1.000000 0.000000 0.000000
vn 1.000000 0.000000 0.000000
vn 1.000000 0.000000 0.000000
vn 1.000000 0.000000 0.000000
vn 0.000000 0.000000 1.000000
vn 0.000000 0.000000 1.000000
vn 0.000000 0.000000 1.000000
vn 0.000000 0.000000 1.000000
vn 0.000000 1.000000 0.000000
vn 0.000000 1.000000 0.000000
vn 0.000000 1.000000 0.000000
vn 0.000000 1.000000 0.000000
vn 1.000000 0.000000 0.000000
vn 1.000000 0.000000 0.000000
vn 1.000000 0.000000 0.000000
vn 1.000000 0.000000 0.000000
vn 0.000000 0.000000 1.000000
vn 0.000000 0.000000 1.000000
vn 0.000000 0.000000 1.000000
vn 0.000000 0.000000 1.000000
vn 0.000000 1.000000 0.000000
vn 0.000000 1.000000 0.000000
vn 0.000000 1.000000 0.000000
vn 0.000000 1.000000 0.000000
vn 1.000000 0.000000 0.000000
vn 1.000000 0.000000 0.000000
vn 1.000000 0.000000 0.000000
vn 1.000000 0.000000 0.000000
vn 0.000000 0.000000 1.000000
vn 0.000000 0.000000 1.000000
vn 0.000000 0.000000 1.000000
vn 0.000000 0.000000 1.000000
vn 0.000000 1.000000 0.000000
vn 0.000000 1.000000 0.000000
vn 0.000000 1.000000 0.000000
vn 0.000000 1.000000 0.000000
vn 1.000000 0.000000 0.000000
vn 1.000000 0.000000 0.000000
vn 1.000000 0.000000 0.000000
vn 1.000000 0.000000 0.000000
vn 0.000000 0.000000 1.000000
vn 0.000000 0.000000 1.000000
vn 0.000000 0.000000 1.000000
vn 0.000000 0.000000 1.000000
vn 0.000000 1.000000 0.000000
vn 0.000000 1.000000 0.000000
vn 0.000000 1.000000 0.000000
vn 0.000000 1.000000 0.000000
vn 1.000000 0.000000 0.000000
vn 1.000000 0.000000 0.000000
vn 1.000000 0.000000 0.000000
vn 1.000000 0.000000 0.000000
vn 0.000000 0.000000 1.000000
vn 0.000000 0.000000 1.000000
vn 0.000000 0.000000 1.000000
vn 0.000000 0.000000 1.000000
vn 0.000000 1.000000 0.000000
vn 0.000000 1.000000 0.000000
vn 0.000000 1.000000 0.000000
vn 0.000000 1.000000 0.000000
vn 1.000000 0.000000 0.000000
vn 1.000000 0.000000 0.000000
vn 1.000000 0.000000 0.000000
vn 1.000000 0.000000 0.000000
g Left
usemtl LeftSG
f 1/1/1 2/9/2 4/10/3 3/11/4
f 3/3/5 4/4/6 6/5/7 5/6/8
f 2/2/9 7/7/10 6/8/11 4/12/12
usemtl LeftSG1
f 8/13/13 9/14/14 11/15/15 10/16/16
f 10/17/17 11/18/18 13/19/19 12/20/20
f 9/21/21 14/22/22 13/23/23 11/24/24
usemtl LeftSG2
f 15/25/25 16/26/26 18/27/27 17/28/28
f 17/28/29 18/27/30 20/29/31 19/30/32
f 16/31/33 21/32/34 20/33/35 18/34/36
f 22/35/37 23/36/38 25/37/39 24/38/40
f 24/38/41 25/37/42 27/39/43 26/40/44
f 23/41/45 28/42/46 27/43/47 25/44/48
f 29/45/49 30/46/50 32/47/51 31/48/52
f 31/48/53 32/47/54 34/49/55 33/50/56
f 30/51/57 35/52/58 34/53/59 32/54/60
usemtl LeftSG1
f 36/55/61 37/56/62 39/57/63 38/58/64
f 38/59/65 39/60/66 41/61/67 40/62/68
f 37/63/69 42/64/70 41/65/71 39/66/72
f 43/67/73 44/68/74 46/69/75 45/70/76
f 45/71/77 46/72/78 48/73/79 47/74/80
f 44/75/81 49/76/82 48/77/83 46/78/84
v 19.291304 4.561987 -4.826077
v 19.291304 4.561987 0.171319
v 19.291304 9.559383 -4.826077
v 19.291304 9.559383 0.171319
v 24.288700 9.559383 -4.826077
v 24.288700 9.559383 0.171319
v 24.288700 4.561987 0.171319
v 19.291304 0.000000 -4.826077
v 19.291304 0.000000 0.171319
v 24.288700 0.000000 0.171319
v 18.739952 -0.039986 -8.734563
v 18.739952 -0.039986 -4.953061
v 18.739952 3.741516 -8.734563
v 18.739952 3.741516 -4.953061
v 22.521454 3.741516 -8.734563
v 22.521454 3.741516 -4.953061
v 22.521454 -0.039986 -4.953061
v 18.276264 -0.039986 0.167341
v 18.276262 -0.039986 4.911589
v 18.276264 4.704261 0.167341
v 18.276262 4.704261 4.911589
v 23.020510 4.704261 0.167341
v 23.020510 4.704261 4.911589
v 23.020510 -0.039986 4.911589
v 18.906826 -0.121573 7.213700
v 18.906828 -0.121573 9.003209
v 18.906826 8.280981 7.213700
v 18.906828 8.280981 9.003209
v 20.696335 8.280981 7.213700
v 20.696337 8.280981 9.003209
v 20.696337 -0.121573 9.003209
v 20.647247 -0.121573 7.213700
v 20.647247 -0.121573 9.003209
v 20.647247 8.280981 7.213700
v 20.647247 8.280981 9.003209
v 22.436756 8.280981 7.213700
v 22.436756 8.280981 9.003209
v 22.436756 -0.121573 9.003209
v 22.401886 -0.121573 7.213700
v 22.401886 -0.121573 9.003209
v 22.401886 8.280981 7.213700
v 22.401886 8.280981 9.003209
v 24.191395 8.280981 7.213700
v 24.191395 8.280981 9.003209
v 24.191395 -0.121573 9.003209
vt 0.000000 0.000000
vt 1.000000 0.000000
vt 0.000000 0.500000
vt 0.000000 0.500000
vt 1.000000 0.500000
vt 1.000000 0.500000
vt 0.000000 0.000000
vt 1.000000 0.000000
vt 1.000000 1.000000
vt 0.000000 1.000000
vt 1.000000 1.000000
vt 0.000000 1.000000
vt 0.000000 0.000000
vt 1.000000 0.000000
vt 1.000000 0.912873
vt 0.000000 0.912873
vt 0.000000 0.000000
vt 1.000000 0.000000
vt 1.000000 0.912873
vt 0.000000 0.912873
vt 0.000000 0.000000
vt 1.000000 0.000000
vt 1.000000 1.000000
vt 0.000000 1.000000
vt 0.000000 0.500000
vt 0.000000 0.500000
vt 1.000000 0.500000
vt 1.000000 0.500000
vt 0.000000 0.000000
vt 1.000000 0.000000
vt 1.000000 1.000000
vt 0.000000 1.000000
vt 0.000000 0.000000
vt 1.000000 0.000000
vt 1.000000 1.000000
vt 0.000000 1.000000
vt 0.000000 0.500000
vt 0.000000 0.500000
vt 1.000000 0.500000
vt 1.000000 0.500000
vt 0.000000 0.000000
vt 1.000000 0.000000
vt 1.000000 1.000000
vt 0.000000 1.000000
vt 0.000000 0.000000
vt 1.000000 0.000000
vt 1.000000 1.000000
vt 0.000000 1.000000
vt -0.000000 0.500000
vt -0.000000 0.500000
vt 1.000000 0.500000
vt 1.000000 0.500000
vt 0.000000 0.000000
vt 1.000000 0.000000
vt 1.000000 1.000000
vt 0.000000 1.000000
vt 0.000000 0.000000
vt 1.000000 0.000000
vt 1.000000 1.000000
vt 0.000000 1.000000
vt -0.000000 0.500000
vt -0.000000 0.500000
vt 1.000000 0.500000
vt 1.000000 0.500000
vt 0.000000 0.000000
vt 1.000000 0.000000
vt 1.000000 1.000000
vt 0.000000 1.000000
vt 0.000000 0.000000
vt 1.000000 0.000000
vt 1.000000 1.000000
vt 0.000000 1.000000
vt -0.000000 0.500000
vt -0.000000 0.500000
vt 1.000000 0.500000
vt 1.000000 0.500000
vt 0.000000 0.000000
vt 1.000000 0.000000
vt 1.000000 1.000000
vt 0.000000 1.000000
vn -1.000000 0.000000 0.000000
vn -1.000000 0.000000 0.000000
vn -1.000000 0.000000 0.000000
vn -1.000000 0.000000 0.000000
vn 0.000000 1.000000 0.000000
vn 0.000000 1.000000 0.000000
vn 0.000000 1.000000 0.000000
vn 0.000000 1.000000 0.000000
vn 0.000000 0.000000 1.000000
vn 0.000000 0.000000 1.000000
vn 0.000000 0.000000 1.000000
vn 0.000000 0.000000 1.000000
vn -1.000000 0.000000 0.000000
vn -1.000000 0.000000 0.000000
vn -1.000000 0.000000 0.000000
vn -1.000000 0.000000 0.000000
vn 0.000000 0.000000 1.000000
vn 0.000000 0.000000 1.000000
vn 0.000000 0.000000 1.000000
vn 0.000000 0.000000 1.000000
vn -1.000000 0.000000 0.000000
vn -1.000000 0.000000 0.000000
vn -1.000000 0.000000 0.000000
vn -1.000000 0.000000 0.000000
vn 0.000000 1.000000 0.000000
vn 0.000000 1.000000 0.000000
vn 0.000000 1.000000 0.000000
vn 0.000000 1.000000 0.000000
vn 0.000000 0.000000 1.000000
vn 0.000000 0.000000 1.000000
vn 0.000000 0.000000 1.000000
vn 0.000000 0.000000 1.000000
vn -1.000000 0.000000 -0.000000
vn -1.000000 0.000000 -0.000000
vn -1.000000 0.000000 -0.000000
vn -1.000000 0.000000 -0.000000
vn 0.000000 1.000000 0.000000
vn 0.000000 1.000000 0.000000
vn 0.000000 1.000000 0.000000
vn 0.000000 1.000000 0.000000
vn 0.000000 0.000000 1.000000
vn 0.000000 0.000000 1.000000
vn 0.000000 0.000000 1.000000
vn 0.000000 0.000000 1.000000
vn -1.000000 0.000000 0.000001
vn -1.000000 0.000000 0.000001
vn -1.000000 0.000000 0.000001
vn -1.000000 0.000000 0.000001
vn 0.000000 1.000000 0.000000
vn 0.000000 1.000000 0.000000
vn 0.000000 1.000000 0.000000
vn 0.000000 1.000000 0.000000
vn 0.000000 0.000000 1.000000
vn 0.000000 0.000000 1.000000
vn 0.000000 0.000000 1.000000
vn 0.000000 0.000000 1.000000
vn -1.000000 0.000000 0.000000
vn -1.000000 0.000000 0.000000
vn -1.000000 0.000000 0.000000
vn -1.000000 0.000000 0.000000
vn 0.000000 1.000000 0.000000
vn 0.000000 1.000000 0.000000
vn 0.000000 1.000000 0.000000
vn 0.000000 1.000000 0.000000
vn 0.000000 0.000000 1.000000
vn 0.000000 0.000000 1.000000
vn 0.000000 0.000000 1.000000
vn 0.000000 0.000000 1.000000
vn -1.000000 0.000000 0.000000
vn -1.000000 0.000000 0.000000
vn -1.000000 0.000000 0.000000
vn -1.000000 0.000000 0.000000
vn 0.000000 1.000000 0.000000
vn 0.000000 1.000000 0.000000
vn 0.000000 1.000000 0.000000
vn 0.000000 1.000000 0.000000
vn 0.000000 0.000000 1.000000
vn 0.000000 0.000000 1.000000
vn 0.000000 0.000000 1.000000
vn 0.000000 0.000000 1.000000
g Right
usemtl RightSG
f 50/79/85 51/80/86 53/89/87 52/90/88
f 52/81/89 53/82/90 55/83/91 54/84/92
f 51/85/93 56/86/94 55/87/95 53/88/96
f 57/91/97 58/92/98 51/93/99 50/94/100
f 58/95/101 59/96/102 56/97/103 51/98/104
usemtl LeftSG1
f 60/99/105 61/100/106 63/101/107 62/102/108
f 62/103/109 63/104/110 65/105/111 64/106/112
f 61/107/113 66/108/114 65/109/115 63/110/116
f 67/111/117 68/112/118 70/113/119 69/114/120
f 69/115/121 70/116/122 72/117/123 71/118/124
f 68/119/125 73/120/126 72/121/127 70/122/128
usemtl LeftSG
f 74/123/129 75/124/130 77/125/131 76/126/132
f 76/127/133 77/128/134 79/129/135 78/130/136
f 75/131/137 80/132/138 79/133/139 77/134/140
f 81/135/141 82/136/142 84/137/143 83/138/144
f 83/139/145 84/140/146 86/141/147 85/142/148
f 82/143/149 87/144/150 86/145/151 84/146/152
f 88/147/153 89/148/154 91/149/155 90/150/156
f 90/151/157 91/152/158 93/153/159 92/154/160
f 89/155/161 94/156/162 93/157/163 91/158/164
v -24.000000 0.061111 10.000000
v 24.000000 0.061111 10.000000
v -24.000000 0.061111 -10.000000
v 24.000000 0.061111 -10.000000
v 15.105600 0.061111 -10.000000
v 15.105600 0.061111 10.000000
v -15.137359 0.061111 -10.000000
v -15.137359 0.061111 10.000000
v -15.137359 -0.418663 -10.000000
v -15.137359 -0.418663 10.000000
v 15.105600 -0.418663 10.000000
v 15.105600 -0.418663 -10.000000
vt -0.000000 1.000000
vt -0.000000 -0.000000
vt 1.000000 -0.000000
vt 1.000000 1.000000
vt 0.814700 1.000000
vt 0.814700 -0.000000
vt 0.184638 1.000000
vt 0.184638 -0.000000
vt 0.184638 1.000000
vt 0.184638 -0.000000
vt 0.814700 -0.000000
vt 0.814700 1.000000
vn 0.000000 1.000000 0.000000
vn 0.000000 1.000000 0.000000
vn 0.000000 1.000000 0.000000
vn 0.000000 1.000000 0.000000
vn 0.000000 1.000000 0.000000
vn 0.000000 1.000000 0.000000
vn 0.000000 1.000000 0.000000
vn 0.000000 1.000000 0.000000
vn 0.000000 1.000000 0.000000
vn 0.000000 1.000000 0.000000
vn 0.000000 1.000000 0.000000
vn 0.000000 1.000000 0.000000
vn 1.000000 0.000000 0.000000
vn 1.000000 0.000000 0.000000
vn 1.000000 0.000000 0.000000
vn 1.000000 0.000000 0.000000
vn -1.000000 0.000000 0.000000
vn -1.000000 0.000000 0.000000
vn -1.000000 0.000000 0.000000
vn -1.000000 0.000000 0.000000
g Floor
usemtl Floor_SG
f 99/163/165 100/164/166 96/161/167 98/162/168
f 103/167/169 104/168/170 105/169/171 106/170/172
f 97/159/173 95/160/174 102/166/175 101/165/176
f 101/165/177 102/166/178 104/168/179 103/167/180
f 100/164/181 99/163/182 106/170/183 105/169/184
