# This file uses centimeters as units for non-parametric coordinates.

mtllib CityBlock1.mtl
v -24.388840 -0.000000 -2.425004
v -18.240246 -0.000000 -2.425004
v -24.388840 28.870432 -2.425004
v -18.240246 28.870432 -2.425004
v -24.388840 28.870432 -8.573597
v -18.240246 28.870432 -8.573597
v -18.240246 -0.000000 -8.573597
v -24.403559 4.730770 4.213996
v -20.622057 4.730770 4.213996
v -24.403559 8.512272 4.213996
v -20.622057 8.512272 4.213996
v -24.403559 8.512272 0.432494
v -20.622057 8.512272 0.432494
v -20.622057 4.730770 0.432494
v -26.859535 0.000000 7.000000
v -18.807499 0.000000 7.000000
v -26.859535 5.961345 7.000000
v -18.807499 5.961345 7.000000
v -26.859535 5.961345 -0.082869
v -18.807501 5.961345 -0.082869
v -18.807501 0.000000 -0.082869
vt 0.000000 0.000000
vt 0.000000 0.000000
vt -0.000000 0.500000
vt -0.000000 0.500000
vt 1.000000 0.500000
vt 1.000000 0.500000
vt 1.000000 0.000000
vt 1.000000 1.000000
vt 1.000000 0.000000
vt 1.000000 1.000000
vt 0.000000 1.000000
vt 0.000000 1.000000
vt 0.000000 0.000000
vt 1.000000 0.000000
vt 1.000000 1.000000
vt 0.000000 1.000000
vt 0.000000 0.500000
vt 0.000000 0.500000
vt 1.000000 0.500000
vt 1.000000 0.500000
vt 0.000000 0.000000
vt 1.000000 0.000000
vt 1.000000 1.000000
vt 0.000000 1.000000
vt 0.000000 0.000000
vt 1.000000 0.000000
vt 1.000000 1.000000
vt 0.000000 1.000000
vt 1.000000 1.000000
vt 0.000000 1.000000
vt 0.000000 0.000000
vt 1.000000 0.000000
vt 1.000000 1.000000
vt 0.000000 1.000000
vn 0.000000 0.000000 1.000000
vn 0.000000 0.000000 1.000000
vn 0.000000 0.000000 1.000000
vn 0.000000 0.000000 1.000000
vn 0.000000 1.000000 0.000000
vn 0.000000 1.000000 0.000000
vn 0.000000 1.000000 0.000000
vn 0.000000 1.000000 0.000000
vn 1.000000 0.000000 0.000000
vn 1.000000 0.000000 0.000000
vn 1.000000 0.000000 0.000000
vn 1.000000 0.000000 0.000000
vn 0.000000 0.000000 1.000000
vn 0.000000 0.000000 1.000000
vn 0.000000 0.000000 1.000000
vn 0.000000 0.000000 1.000000
vn 0.000000 1.000000 0.000000
vn 0.000000 1.000000 0.000000
vn 0.000000 1.000000 0.000000
vn 0.000000 1.000000 0.000000
vn 1.000000 0.000000 0.000000
vn 1.000000 0.000000 0.000000
vn 1.000000 0.000000 0.000000
vn 1.000000 0.000000 0.000000
vn 0.000000 0.000000 1.000000
vn 0.000000 0.000000 1.000000
vn 0.000000 0.000000 1.000000
vn 0.000000 0.000000 1.000000
vn 0.000000 1.000000 0.000000
vn 0.000000 1.000000 0.000000
vn 0.000000 1.000000 0.000000
vn 0.000000 1.000000 0.000000
vn 1.000000 0.000000 -0.000000
vn 1.000000 0.000000 -0.000000
vn 1.000000 0.000000 -0.000000
vn 1.000000 0.000000 -0.000000
g Left
usemtl LeftSG
f 1/1/1 2/9/2 4/10/3 3/11/4
f 3/3/5 4/4/6 6/5/7 5/6/8
f 2/2/9 7/7/10 6/8/11 4/12/12
usemtl LeftSG1
f 8/13/13 9/14/14 11/15/15 10/16/16
f 10/17/17 11/18/18 13/19/19 12/20/20
f 9/21/21 14/22/22 13/23/23 11/24/24
usemtl LeftSG2
f 15/25/25 16/26/26 18/27/27 17/28/28
f 17/28/29 18/27/30 20/29/31 19/30/32
f 16/31/33 21/32/34 20/33/35 18/34/36
v 16.895555 7.078279 -8.289527
v 16.895555 7.078279 -0.535677
v 16.895555 14.832130 -8.289527
v 16.895555 14.832130 -0.535677
v 24.649406 14.832130 -8.289527
v 24.649406 14.832130 -0.535677
v 24.649406 7.078279 -0.535677
v 16.895555 0.000000 -8.289527
v 16.895555 0.000000 -0.535677
v 24.649406 0.000000 -0.535677
v 17.643982 -0.000000 2.699898
v 17.643982 -0.000000 8.848491
v 17.643982 28.870432 2.699898
v 17.643982 28.870432 8.848491
v 23.792576 28.870432 2.699898
v 23.792576 28.870432 8.848491
v 23.792576 -0.000000 8.848491
vt 0.000000 0.000000
vt 1.000000 0.000000
vt 0.000000 0.500000
vt 0.000000 0.500000
vt 1.000000 0.500000
vt 1.000000 0.500000
vt 0.000000 0.000000
vt 1.000000 0.000000
vt 1.000000 1.000000
vt 0.000000 1.000000
vt 1.000000 1.000000
vt 0.000000 1.000000
vt 0.000000 0.000000
vt 1.000000 0.000000
vt 1.000000 0.912873
vt 0.000000 0.912873
vt 0.000000 0.000000
vt 1.000000 0.000000
vt 1.000000 0.912873
vt 0.000000 0.912873
vt 0.000000 0.000000
vt 1.000000 0.000000
vt 1.000000 1.000000
vt 0.000000 1.000000
vt -0.000000 0.500000
vt -0.000000 0.500000
vt 1.000000 0.500000
vt 1.000000 0.500000
vt 0.000000 0.000000
vt 1.000000 0.000000
vt 1.000000 1.000000
vt 0.000000 1.000000
vn -1.000000 0.000000 0.000000
vn -1.000000 0.000000 0.000000
vn -1.000000 0.000000 0.000000
vn -1.000000 0.000000 0.000000
vn 0.000000 1.000000 0.000000
vn 0.000000 1.000000 0.000000
vn 0.000000 1.000000 0.000000
vn 0.000000 1.000000 0.000000
vn 0.000000 0.000000 1.000000
vn 0.000000 0.000000 1.000000
vn 0.000000 0.000000 1.000000
vn 0.000000 0.000000 1.000000
vn -1.000000 0.000000 0.000000
vn -1.000000 0.000000 0.000000
vn -1.000000 0.000000 0.000000
vn -1.000000 0.000000 0.000000
vn 0.000000 0.000000 1.000000
vn 0.000000 0.000000 1.000000
vn 0.000000 0.000000 1.000000
vn 0.000000 0.000000 1.000000
vn -1.000000 0.000000 0.000000
vn -1.000000 0.000000 0.000000
vn -1.000000 0.000000 0.000000
vn -1.000000 0.000000 0.000000
vn 0.000000 1.000000 0.000000
vn 0.000000 1.000000 0.000000
vn 0.000000 1.000000 0.000000
vn 0.000000 1.000000 0.000000
vn 0.000000 0.000000 1.000000
vn 0.000000 0.000000 1.000000
vn 0.000000 0.000000 1.000000
vn 0.000000 0.000000 1.000000
g Right
usemtl RightSG
f 22/35/37 23/36/38 25/45/39 24/46/40
f 24/37/41 25/38/42 27/39/43 26/40/44
f 23/41/45 28/42/46 27/43/47 25/44/48
f 29/47/49 30/48/50 23/49/51 22/50/52
f 30/51/53 31/52/54 28/53/55 23/54/56
usemtl LeftSG
f 32/55/57 33/56/58 35/57/59 34/58/60
f 34/59/61 35/60/62 37/61/63 36/62/64
f 33/63/65 38/64/66 37/65/67 35/66/68
v -24.000000 0.061111 10.000000
v 24.000000 0.061111 10.000000
v -24.000000 0.061111 -10.000000
v 24.000000 0.061111 -10.000000
v 15.105600 0.061111 -10.000000
v 15.105600 0.061111 10.000000
v -15.137359 0.061111 -10.000000
v -15.137359 0.061111 10.000000
v -15.137359 -0.418663 -10.000000
v -15.137359 -0.418663 10.000000
v 15.105600 -0.418663 10.000000
v 15.105600 -0.418663 -10.000000
vt -0.000000 1.000000
vt -0.000000 -0.000000
vt 1.000000 -0.000000
vt 1.000000 1.000000
vt 0.814700 1.000000
vt 0.814700 -0.000000
vt 0.184638 1.000000
vt 0.184638 -0.000000
vt 0.184638 1.000000
vt 0.184638 -0.000000
vt 0.814700 -0.000000
vt 0.814700 1.000000
vn 0.000000 1.000000 0.000000
vn 0.000000 1.000000 0.000000
vn 0.000000 1.000000 0.000000
vn 0.000000 1.000000 0.000000
vn 0.000000 1.000000 0.000000
vn 0.000000 1.000000 0.000000
vn 0.000000 1.000000 0.000000
vn 0.000000 1.000000 0.000000
vn 0.000000 1.000000 0.000000
vn 0.000000 1.000000 0.000000
vn 0.000000 1.000000 0.000000
vn 0.000000 1.000000 0.000000
vn 1.000000 0.000000 0.000000
vn 1.000000 0.000000 0.000000
vn 1.000000 0.000000 0.000000
vn 1.000000 0.000000 0.000000
vn -1.000000 0.000000 0.000000
vn -1.000000 0.000000 0.000000
vn -1.000000 0.000000 0.000000
vn -1.000000 0.000000 0.000000
g Floor
usemtl Floor_SG
f 43/71/69 44/72/70 40/69/71 42/70/72
f 47/75/73 48/76/74 49/77/75 50/78/76
f 41/67/77 39/68/78 46/74/79 45/73/80
f 45/73/81 46/74/82 48/76/83 47/75/84
f 44/72/85 43/71/86 50/78/87 49/77/88
